# xmcd
#
# Track frame offsets:
#	150
#	15722
#	30012
#	46376
#	59985
#
# Disc length: 1006 seconds
# Revision: 0
# Processed by: cddbd v1.5.2PL0 Copyright (c) Steve Scherf et al.
# Submitted via: dBpowerAMP V12.0
#
DISCID=3903ec05
DTITLE=Betsy Lane - Betsy Lane
DYEAR=2018
DGENRE=Country
TTITLE0=Seventeen
TTITLE1=Can't Turn Off Lonely
TTITLE2=To Hear Her Tell It
TTITLE3=Limited Edition
TTITLE4=Lookin' At Rings
EXTD=
EXTT0=
EXTT1=
EXTT2=
EXTT3=
EXTT4=
PLAYORDER=
